<?xml version="1.0" standalone="no"?>
<svg version="1.2" xmlns="http://www.w3.org/2000/svg" xmlns:xlink="http://www.w3.org/1999/xlink" overflow="visible" preserveAspectRatio="none" viewBox="4 4 25 25" width="20" height="20"><g transform="translate(1, 1)"><defs><path d="M22.6875,6.875 L25.5625,6.875 C26.356002807617188,6.875 27,7.519000053405762 27,8.3125 L27,25.5625 C27,26.356000900268555 26.356002807617188,27 25.5625,27 L5.4375,27 C4.643999099731445,27 4,26.356000900268555 4,25.5625 L4,8.3125 C4,7.519000053405762 4.643999099731445,6.875 5.4375,6.875 L8.3125,6.875 L8.3125,4 L12.625,4 L12.625,6.875 L18.375,6.875 L18.375,4 L22.6875,4 L22.6875,6.875 L5.149999618530273,25.850000381469727 L25.849998474121094,25.850000381469727 L25.849998474121094,8.599999904632568 L5.149999618530273,8.599999904632568 L5.149999618530273,25.850000381469727 L22.6875,6.875Z" fill-rule="evenodd" opacity="1" id="path-1_1561626338129" vector-effect="non-scaling-stroke"/><mask maskContentUnits="userSpaceOnUse" maskUnits="userSpaceOnUse" id="mask-2_1561626338129" vector-effect="non-scaling-stroke"><rect fill="Black" height="31" width="31" y="0" x="0" opacity="1" vector-effect="non-scaling-stroke"/><use fill="White" xmlns:xlink="http://www.w3.org/1999/xlink" xlink:href="#path-1_1561626338129" vector-effect="non-scaling-stroke"/></mask></defs><g><g opacity="1"><use fill-opacity="1" fill="rgb(0,0,0)" xmlns:xlink="http://www.w3.org/1999/xlink" xlink:href="#path-1_1561626338129" vector-effect="non-scaling-stroke"/></g><g mask="url(#mask-2_1561626338129)"/></g></g></svg>