<svg version="1.2" xmlns="http://www.w3.org/2000/svg" xmlns:xlink="http://www.w3.org/1999/xlink" overflow="visible" preserveAspectRatio="none" viewBox="0 0 59 59" xml:space="preserve" height="24" width="24" y="0px" x="0px" id="Layer_1_1561687452117"><g transform="translate(1, 1)"><g>
	<path d="M37.4,29c1.98,0,3.6-1.619,3.6-3.6c0-1.981-1.619-3.6-3.6-3.6c-1.981,0-3.601,1.619-3.601,3.6   C33.8,27.381,35.419,29,37.4,29z" vector-effect="non-scaling-stroke"/>
	<path d="M52.817,28.267L29.705,5.171c-0.11-0.107-0.258-0.167-0.412-0.169H9.199c-0.037-0.003-0.075-0.003-0.112,0   C8.8,5.058,8.594,5.311,8.599,5.603v6.768c-0.007,0.012-0.013,0.024-0.019,0.037l-0.169,0.656l-3.243,3.225   C5.057,16.403,4.997,16.559,5,16.719v32.675c0,0.331,0.269,0.6,0.6,0.6h14.714l1.556,2.699c0.079,0.141,0.21,0.243,0.365,0.285   c0.155,0.043,0.321,0.021,0.459-0.061l5.042-2.924h6.054c0.332,0,0.601-0.269,0.601-0.6v-1.855l13.646-13.648   c0.18-0.144,0.26-0.377,0.209-0.602c-0.052-0.224-0.227-0.398-0.451-0.45c-0.223-0.052-0.457,0.03-0.602,0.208L32.292,47.932   L9.799,25.437v-1.565v-9.268v-0.002v-4.039v-4.36h19.25l22.475,22.496l-0.955,0.956c-0.154,0.154-0.215,0.379-0.158,0.589   s0.221,0.375,0.432,0.431c0.21,0.057,0.435-0.003,0.588-0.157l1.388-1.388C52.934,29.017,53,28.861,53,28.698   S52.934,28.38,52.817,28.267z M19.4,48.2h-12v-24L19.4,48.2z" vector-effect="non-scaling-stroke"/>
	<path d="M17,20.6c0,1.254,0.651,2.359,1.629,3.004l-1.615-3.147C17.013,20.505,17,20.551,17,20.6z" vector-effect="non-scaling-stroke"/>
	<path d="M20.6,17l3.24,2.062C23.26,17.849,22.029,17,20.6,17z" vector-effect="non-scaling-stroke"/>
	<path d="M29.596,33.713c0.373,0.116,0.836,0.116,1.209,0c0.373-0.115,0.601-0.328,0.594-0.557v-7.865l-2.397-0.109v7.975   C28.995,33.385,29.223,33.598,29.596,33.713z" vector-effect="non-scaling-stroke"/>
	<g>
		<path d="M17.015,20.457c0.001-0.017,0.005-0.031,0.007-0.047c0-0.005,0.001-0.01,0.001-0.015    C17.022,20.416,17.016,20.436,17.015,20.457z" vector-effect="non-scaling-stroke"/>
		<path d="M29.693,12.261c0.109-0.028,0.229-0.048,0.357-0.056l-0.24,0.028C29.772,12.241,29.735,12.249,29.693,12.261z" vector-effect="non-scaling-stroke"/>
		<path d="M29.693,12.261c-0.037,0.009-0.066,0.025-0.101,0.036C29.627,12.284,29.66,12.271,29.693,12.261z" vector-effect="non-scaling-stroke"/>
		<path d="M29.521,12.324c0.024-0.009,0.047-0.019,0.072-0.027C29.568,12.307,29.545,12.313,29.521,12.324z" vector-effect="non-scaling-stroke"/>
		<path d="M19.885,17.073c0.061-0.012,0.127-0.01,0.189-0.019c0,0,0.001,0,0.001,0C20.012,17.063,19.946,17.06,19.885,17.073z" vector-effect="non-scaling-stroke"/>
		<path d="M17.022,20.41c-0.005,0.064-0.02,0.125-0.02,0.19c0,1.981,1.619,3.6,3.601,3.6c1.98,0,3.6-1.619,3.6-3.6    c0-1.981-1.619-3.6-3.6-3.6c-0.181,0-0.355,0.027-0.529,0.054C19.143,17.213,17.286,17.854,17.022,20.41z" vector-effect="non-scaling-stroke"/>
	</g>
	<path d="M20.075,17.053c0,0,0.677-0.174,2.145,0.339" vector-effect="non-scaling-stroke"/>
	<path d="M31.012,12.367c-0.158-0.077-0.354-0.119-0.559-0.142c-0.071-0.012-0.153-0.02-0.253-0.02   c-0.021,0-0.034,0.004-0.054,0.005c-0.032,0-0.063-0.007-0.096-0.005l-0.03,0.016c-0.58,0.042-0.837,0.266-0.941,0.477l-0.038,0.02   c-0.017,0.047-0.044,0.092-0.04,0.142v0.127c-0.001,0.043,0,0.076,0,0.076v6.729H29v8.542h2.398v-4.462v-4.08v-6.933   C31.413,12.673,31.271,12.493,31.012,12.367z" vector-effect="non-scaling-stroke"/>
</g><polygon points="9.799,14.604 7.4,16.543 7.4,21.8" fill="#FFFFFF" vector-effect="non-scaling-stroke"/></g></svg>