<?xml version="1.0" encoding="UTF-8"?>
<svg width="16px" height="18px" viewBox="0 0 16 18" version="1.1" xmlns="http://www.w3.org/2000/svg" xmlns:xlink="http://www.w3.org/1999/xlink">
    <!-- Generator: Sketch 53 (72520) - https://sketchapp.com -->
    <title>dustbin</title>
    <desc>Created with Sketch.</desc>
    <g id="Page-1" stroke="none" stroke-width="1" fill="none" fill-rule="evenodd">
        <g id="dustbin" transform="translate(-0.558140, -0.093023)" fill="#000000" fill-rule="nonzero">
            <path d="M8.9997907,14.8377209 L8.9997907,7.64295349 L8.9997907,7.08118605 L8.9997907,6.4442093 L8.9997907,4.34755814 L8.9997907,4.26851163 L8.98213953,4.26851163 C8.89465116,3.84104651 8.16481395,3.84027907 8.07655814,4.26851163 L8.05813953,4.26851163 L8.05813953,5.14262791 L8.05813953,7.64218605 L8.05813953,14.8369535 C8.05813953,15.3795349 8.9997907,15.3787674 8.9997907,14.8377209 Z" id="Path"></path>
            <path d="M12.7679302,14.8377209 L12.7057674,14.7095581 L12.7103721,14.7095581 L12.7679302,14.8377209 L12.7679302,14.7095581 L12.7679302,11.3358837 L12.7679302,4.34755814 C12.7679302,3.80574419 11.8255116,3.80651163 11.8255116,4.34755814 L11.8255116,12.7395349 L11.8262791,12.7410698 L11.8262791,12.8999302 L11.8255116,12.8983953 L11.8255116,14.8377209 C11.8255116,15.3787674 12.7679302,15.3795349 12.7679302,14.8377209 Z" id="Path"></path>
            <path d="M16.1323953,1.11662791 L11.411093,1.11662791 C11.9636512,1.11662791 11.9644186,0.174976744 11.411093,0.174976744 L5.64453488,0.174976744 C5.3974186,0.174976744 5.2324186,0.363 5.2324186,0.645418605 C5.2324186,0.927837209 5.43809302,1.11662791 5.64453488,1.11662791 L0.925534884,1.11662791 C0.389093023,1.11662791 0.388325581,1.92397674 0.925534884,1.92397674 L1.72597674,1.92397674 L1.72597674,17.6665116 C1.72597674,17.9082558 1.88560465,18.0694186 2.12581395,18.0694186 L14.9321163,18.0694186 C15.1723256,18.0694186 15.3319535,17.9082558 15.3319535,17.6665116 L15.3319535,1.9232093 L16.1323953,1.9232093 C16.6696047,1.9232093 16.6696047,1.11662791 16.1323953,1.11662791 Z M14.6512326,3.67451163 L14.6512326,17.1285349 L2.40669767,17.1285349 L2.40669767,2.05827907 L5.24393023,2.05827907 L14.6504651,2.05827907 L14.6504651,3.67451163 L14.6512326,3.67451163 Z" id="Shape"></path>
            <path d="M4.29076744,4.34755814 L4.29076744,14.8377209 C4.29076744,15.3787674 5.23318605,15.3795349 5.23318605,14.8377209 L5.23318605,4.34755814 C5.2324186,3.80574419 4.29076744,3.80651163 4.29076744,4.34755814 Z" id="Path"></path>
        </g>
    </g>
</svg>