<?xml version="1.0" encoding="UTF-8"?>
<svg width="19px" height="19px" viewBox="0 0 22 24" version="1.1" xmlns="http://www.w3.org/2000/svg" xmlns:xlink="http://www.w3.org/1999/xlink">
    <!-- Generator: Sketch 53 (72520) - https://sketchapp.com -->
    <title>dustbin</title>
    <desc>Created with Sketch.</desc>
    <g id="Page-1" stroke="none" stroke-width="1" fill={this.props.fill} fill-rule="evenodd">
        <g id="dustbin" fill={this.props.fill} fill-rule="nonzero">
            <path d="M11.727,19.334 L11.727,9.959 L11.727,9.227 L11.727,8.397 L11.727,5.665 L11.727,5.562 L11.704,5.562 C11.59,5.005 10.639,5.004 10.524,5.562 L10.5,5.562 L10.5,6.701 L10.5,9.958 L10.5,19.333 C10.5,20.04 11.727,20.039 11.727,19.334 Z" id="Path"></path>
            <path d="M16.637,19.334 L16.556,19.167 L16.562,19.167 L16.637,19.334 L16.637,19.167 L16.637,14.771 L16.637,5.665 C16.637,4.959 15.409,4.96 15.409,5.665 L15.409,16.6 L15.41,16.602 L15.41,16.809 L15.409,16.807 L15.409,19.334 C15.409,20.039 16.637,20.04 16.637,19.334 Z" id="Path"></path>
            <path d="M21.021,1.455 L14.869,1.455 C15.589,1.455 15.59,0.228 14.869,0.228 L7.355,0.228 C7.033,0.228 6.818,0.473 6.818,0.841 C6.818,1.209 7.086,1.455 7.355,1.455 L1.206,1.455 C0.507,1.455 0.506,2.507 1.206,2.507 L2.249,2.507 L2.249,23.02 C2.249,23.335 2.457,23.545 2.77,23.545 L19.457,23.545 C19.77,23.545 19.978,23.335 19.978,23.02 L19.978,2.506 L21.021,2.506 C21.721,2.506 21.721,1.455 21.021,1.455 Z M19.091,4.788 L19.091,22.319 L3.136,22.319 L3.136,2.682 L6.833,2.682 L19.09,2.682 L19.09,4.788 L19.091,4.788 Z" id="Shape"></path>
            <path d="M5.591,5.665 L5.591,19.334 C5.591,20.039 6.819,20.04 6.819,19.334 L6.819,5.665 C6.818,4.959 5.591,4.96 5.591,5.665 Z" id="Path"></path>
        </g>
    </g>
</svg>