<svg version="1.2" xmlns="http://www.w3.org/2000/svg" xmlns:xlink="http://www.w3.org/1999/xlink" overflow="visible" preserveAspectRatio="none" viewBox="0 0 27 27" xml:space="preserve" height="23" width="23" y="0px" x="0px" fill={this.props.fill} id="Layer_1_1561627408563"><g transform="translate(1, 1)"><g>
	<g>
		<path d="M10.016,7.517H8.982c-0.327,0-0.591,0.266-0.591,0.594s0.264,0.594,0.591,0.594h1.034    c0.326,0,0.591-0.266,0.591-0.594S10.342,7.517,10.016,7.517z" id="path-1_1561627408563" vector-effect="non-scaling-stroke"/>
	</g>
</g><g>
	<g>
		<path d="M5.879,7.517H4.845c-0.326,0-0.591,0.266-0.591,0.594s0.265,0.594,0.591,0.594h1.034    c0.327,0,0.591-0.266,0.591-0.594S6.206,7.517,5.879,7.517z" id="path-2_1561627408563" vector-effect="non-scaling-stroke"/>
	</g>
</g><g>
	<g>
		<path d="M13.118,8.706h1.034c0.326,0,0.591-0.266,0.591-0.594s-0.265-0.594-0.591-0.594h-1.034    c-0.326,0-0.591,0.266-0.591,0.594S12.792,8.706,13.118,8.706z" id="path-3_1561627408563" vector-effect="non-scaling-stroke"/>
	</g>
</g><g>
	<g>
		<path d="M17.254,8.706h1.035c0.326,0,0.59-0.266,0.59-0.594s-0.264-0.594-0.59-0.594h-1.035    c-0.326,0-0.59,0.266-0.59,0.594S16.928,8.706,17.254,8.706z" id="path-4_1561627408563" vector-effect="non-scaling-stroke"/>
	</g>
</g><g>
	<g>
		<path d="M10.016,10.993H8.982c-0.327,0-0.591,0.266-0.591,0.594c0,0.329,0.264,0.594,0.591,0.594h1.034    c0.326,0,0.591-0.266,0.591-0.594C10.607,11.259,10.342,10.993,10.016,10.993z" id="path-5_1561627408563" vector-effect="non-scaling-stroke"/>
	</g>
</g><g>
	<g>
		<path d="M5.879,10.993H4.845c-0.326,0-0.591,0.266-0.591,0.594c0,0.329,0.265,0.594,0.591,0.594h1.034    c0.327,0,0.591-0.266,0.591-0.594C6.47,11.259,6.206,10.993,5.879,10.993z" id="path-6_1561627408563" vector-effect="non-scaling-stroke"/>
	</g>
</g><g>
	<g>
		<path d="M10.016,14.44H8.982c-0.327,0-0.591,0.266-0.591,0.594s0.264,0.594,0.591,0.594h1.034    c0.326,0,0.591-0.266,0.591-0.594S10.342,14.44,10.016,14.44z" id="path-7_1561627408563" vector-effect="non-scaling-stroke"/>
	</g>
</g><g>
	<g>
		<path d="M5.879,14.44H4.845c-0.326,0-0.591,0.266-0.591,0.594s0.265,0.594,0.591,0.594h1.034    c0.327,0,0.591-0.266,0.591-0.594S6.206,14.44,5.879,14.44z" id="path-8_1561627408563" vector-effect="non-scaling-stroke"/>
	</g>
</g><g>
	<g>
		<path d="M21.007,16.965H18.85v-3.06c0-0.328-0.264-0.594-0.59-0.594c-0.327,0-0.592,0.266-0.592,0.594v3.654    c0,0.328,0.265,0.595,0.592,0.595h2.776c0.327,0,0.591-0.267,0.591-0.595s-0.264-0.595-0.591-0.595H21.007z" id="path-10_1561627408563" vector-effect="non-scaling-stroke"/>
	</g>
</g><path d="M22.898,11.291V4.873c0-1.641-1.324-2.971-2.955-2.971h-0.207V0.713c0-0.328-0.265-0.594-0.591-0.594  s-0.591,0.266-0.591,0.594v1.159h-2.6V0.713c0-0.328-0.265-0.594-0.591-0.594c-0.327,0-0.591,0.266-0.591,0.594v1.159h-2.6V0.713  c0-0.328-0.265-0.594-0.591-0.594c-0.327,0-0.591,0.266-0.591,0.594v1.159H8.361V0.713c0-0.328-0.265-0.594-0.591-0.594  S7.18,0.385,7.18,0.713v1.159h-2.6V0.713c0-0.328-0.265-0.594-0.591-0.594c-0.327,0-0.591,0.266-0.591,0.594v1.159H3.191  c-1.632,0-2.955,1.33-2.955,2.971v12.004c0,1.641,1.323,2.972,2.955,2.972h8.805c1.167,2.785,3.944,4.539,6.946,4.388  c3.003-0.151,5.591-2.176,6.476-5.065C26.303,16.252,25.295,13.114,22.898,11.291z M3.191,18.629c-0.979,0-1.773-0.798-1.773-1.782  V4.873c0-0.984,0.794-1.783,1.773-1.783h0.207v0.862c0,0.328,0.264,0.594,0.591,0.594c0.326,0,0.591-0.266,0.591-0.594V3.09h2.6  v0.862c0,0.328,0.265,0.594,0.591,0.594S8.361,4.28,8.361,3.952V3.09h2.6v0.862c0,0.328,0.265,0.594,0.591,0.594  s0.591-0.266,0.591-0.594V3.09h2.63v0.862c0,0.328,0.264,0.594,0.591,0.594c0.326,0,0.591-0.266,0.591-0.594V3.09h2.6v0.862  c0,0.328,0.265,0.594,0.591,0.594s0.591-0.266,0.591-0.594V3.09h0.207c0.979,0,1.772,0.798,1.772,1.783v5.675  c-2.327-1.138-5.085-0.922-7.209,0.564c-0.103-0.077-0.227-0.119-0.354-0.119h-1.034c-0.326,0-0.591,0.266-0.591,0.594  c0,0.329,0.265,0.594,0.591,0.594c0,0,0.164,0,0.177,0c-0.071,0-0.306,0.363-0.355,0.425c-0.116,0.146-0.226,0.296-0.329,0.452  c-0.21,0.318-0.392,0.656-0.549,1.004c-0.313,0.693-0.499,1.425-0.575,2.182c-0.041,0.409-0.068,0.822-0.053,1.233  c0.004,0.124,0.073,1.151,0.148,1.151H3.191z M12.527,17.014c0-3.325,2.695-6.021,6.02-6.021c3.326,0,6.021,2.695,6.021,6.021  s-2.695,6.021-6.021,6.021C15.222,23.034,12.527,20.339,12.527,17.014z" vector-effect="non-scaling-stroke"/></g></svg>