<?xml version="1.0" standalone="no"?>
<svg version="1.2" xmlns="http://www.w3.org/2000/svg" xmlns:xlink="http://www.w3.org/1999/xlink" overflow="visible" preserveAspectRatio="none" viewBox="0 0 57.5 57.5" xml:space="preserve" height="31" width="31" y="0px" x="0px" id="Layer_1_1561693009385"><g transform="translate(1, 1)"><g>
	<path d="M47.147,35.092l-1.509-4.752l-0.656,0.054c-0.979,0.072-1.866-0.542-2.175-1.513l-0.075-0.234   c-0.308-0.972,0.045-2.037,0.868-2.597l0.55-0.378l-1.499-4.708c-0.141-0.443-0.355-0.836-0.618-1.175   c0.046-0.303,0.054-0.611,0.028-0.925c-0.089-0.991-0.538-1.889-1.257-2.521l-3.647-3.194l-0.53,0.413   c-0.789,0.612-1.856,0.581-2.604-0.072l-0.177-0.157c-0.751-0.649-0.979-1.757-0.56-2.687l0.28-0.63l-3.616-3.165   c-1.496-1.307-3.718-1.083-4.953,0.498l-2.929,3.753l0.229,2.575c0.021,0.241-0.152,0.464-0.379,0.488l-2.434,0.241L6.804,30.657   c-1.237,1.582-1.023,3.938,0.471,5.247l3.621,3.169l0.52-0.354c0.348-0.236,0.751-0.347,1.151-0.347   c0.227,0.241,0.409,0.532,0.515,0.858l0.072,0.235c0.289,0.911-0.021,1.947-0.754,2.519l-0.496,0.387l1.514,4.761   c0.496,1.551,1.871,2.534,3.34,2.534c0.372,0,0.749-0.061,1.121-0.195l18.864-6.733l1.085-2.318   c0.065-0.141,0.182-0.198,0.242-0.221c0.061-0.024,0.187-0.05,0.323,0.022l2.189,1.146l4.356-1.553   C46.779,39.156,47.768,37.039,47.147,35.092z M12.316,36.662l-1.252,0.236l-2.712-2.373c-0.778-0.686-0.887-1.907-0.246-2.732   l12.237-15.678l1.734-0.174c0.421-0.044,0.801-0.216,1.11-0.478c-0.041,0.297,0.059,0.611,0.295,0.817l1.627,1.423   c0.158,0.139,0.35,0.206,0.537,0.206c0.244,0,0.486-0.111,0.651-0.325c0.298-0.38,0.246-0.944-0.113-1.258L24.557,14.9   c-0.235-0.206-0.542-0.251-0.813-0.153c0.184-0.37,0.274-0.8,0.232-1.244l-0.165-1.836l2.482-3.181   c0.643-0.822,1.797-0.939,2.575-0.258l2.65,2.319c-0.391,1.508,0.073,3.145,1.238,4.165l0.18,0.157   c1.171,1.022,2.774,1.197,4.1,0.505l2.682,2.348c0.376,0.326,0.605,0.794,0.653,1.312c0.048,0.516-0.096,1.02-0.409,1.414   l-2.482,3.184l-1.735,0.175c-0.56,0.057-1.064,0.341-1.426,0.802c-0.36,0.461-0.529,1.042-0.477,1.635l0.162,1.838l-4.087,5.236   l-3.8,4.869l-4.348,5.574c-0.311,0.395-0.749,0.643-1.237,0.688c-0.491,0.053-0.964-0.098-1.339-0.432l-2.746-2.403   c0.303-1.457-0.178-2.987-1.292-3.966l-0.178-0.155c-0.135-0.12-0.298-0.195-0.453-0.296   C13.758,36.718,12.957,36.627,12.316,36.662z M44.397,38.117c-1.534,0.547-3.693,1.319-3.693,1.319s-4.146-3.758-5.167,1.847   l-17.892,6.382c0,0-1.991,0.888-2.691-1.307c-0.7-2.195-1.075-3.374-1.075-3.374l0.589-0.783l4.274,3.628   c0,0,2.324,1.65,4.721-1.423c2.398-3.073,3.336-4.272,3.336-4.272l5.862-2.092l-0.54-1.695l-3.281,1.174l5.315-6.812l0.484,1.511   c0,0,0.176,1.043,1.186,0.921c1.009-0.116,0.217-2.115,0.217-2.115s-0.298-1.752-0.827-1.666l0.55-0.706l-0.164-1.844   c0,0-0.271-1.156,0.759-1.262s1.029-0.105,1.029-0.105l0.954-0.094l2.785-3.568l1.021,3.211c0,0-3.854,4.824,2.291,7.181   l1.112,3.492C45.548,35.664,45.932,37.57,44.397,38.117z" vector-effect="non-scaling-stroke"/>
	<path d="M11.402,36.795c0.22-0.058,0.54-0.112,0.915-0.133l0.283-0.055C12.195,36.604,11.795,36.673,11.402,36.795z" vector-effect="non-scaling-stroke"/>
</g><g>
	<g>
		<path d="M38.797,35.057c-0.164-0.614-0.687-0.948-1.171-0.737c-0.484,0.206-0.741,0.875-0.58,1.49l0.736,2.784    c0.132,0.489,0.492,0.798,0.878,0.798c0.097,0,0.197-0.02,0.293-0.061c0.484-0.205,0.742-0.875,0.58-1.489L38.797,35.057z" id="path-2_1561693009385" vector-effect="non-scaling-stroke"/>
	</g>
</g><g>
	<g>
		<path d="M29.68,21.084c0.246,0.218,0.54,0.326,0.837,0.326c0.379,0,0.755-0.177,1.015-0.52    c0.464-0.608,0.384-1.51-0.177-2.013l-2.53-2.279c-0.56-0.501-1.39-0.419-1.854,0.193c-0.463,0.608-0.382,1.508,0.176,2.013    L29.68,21.084z" id="path-3_1561693009385" vector-effect="non-scaling-stroke"/>
	</g>
</g><g>
	<g>
		<path d="M34.846,26.222c0.248,0.218,0.54,0.326,0.838,0.326c0.379,0,0.754-0.177,1.015-0.52    c0.464-0.608,0.383-1.51-0.177-2.013l-2.53-2.279c-0.561-0.501-1.388-0.419-1.854,0.193c-0.464,0.608-0.384,1.507,0.172,2.013    L34.846,26.222z" id="path-4_1561693009385" vector-effect="non-scaling-stroke"/>
	</g>
</g><g transform="translate(5.267478491822615, 7.668778785555691) rotate(39.5708219076141) translate(-5.267478491822615, -7.668778785555691)">
	<g>
		<polygon points="26.534,6.037 29.112,6.029 29.075,18.825 26.498,18.832" id="rect-5_1561693009385" vector-effect="non-scaling-stroke"/>
	</g>
</g><g transform="translate(5.776910445912063, 9.74185405166314) rotate(-50.42479375982932) translate(-5.776910445912063, -9.74185405166314)">
	<g>
		<polygon points="-4.197,33.677 2.235,33.694 2.243,36.272 -4.189,36.254" id="rect-6_1561693009385" vector-effect="non-scaling-stroke"/>
	</g>
</g><g transform="translate(7.821969502607434, 9.87418969222345) rotate(129.57085408838915) translate(-7.821969502607434, -9.87418969222345)">
	<g>
		<polygon points="3.769,-19.302 21.574,-19.251 21.58,-16.672 3.777,-16.723" id="rect-7_1561693009385" vector-effect="non-scaling-stroke"/>
	</g>
</g></g></svg>