<?xml version="1.0" standalone="no"?>
<svg version="1.2" xmlns="http://www.w3.org/2000/svg" xmlns:xlink="http://www.w3.org/1999/xlink" overflow="visible" preserveAspectRatio="none" viewBox="0 0 33 35" xml:space="preserve" height="33" width="31" y="0px" x="0px" id="Layer_1_1561608889721"><g transform="translate(1, 1)"><g>
	<g>
		<g>
			<g>
				<path d="M22.279,8.75c0,3.728-3.201,6.75-7.151,6.75s-7.152-3.022-7.152-6.75S11.178,2,15.128,2      S22.279,5.022,22.279,8.75h-2.145c0-2.609-2.242-4.725-5.007-4.725c-2.765,0-5.007,2.116-5.007,4.725s2.242,4.725,5.007,4.725      c2.765,0,5.007-2.116,5.007-4.725H22.279z" fill="#0080C9" id="path-1_1561608889721" vector-effect="non-scaling-stroke"/>
			</g>
		</g>
		<g>
			<g>
				<path d="M26.807,21.393c0.246,0.141,0.42,0.37,0.48,0.635c0.067,0.266,0.016,0.547-0.144,0.776      c-2.616,3.856-7.135,6.19-11.987,6.19s-9.371-2.334-11.987-6.19c-0.155-0.229-0.206-0.507-0.143-0.771s0.235-0.495,0.479-0.64      C10.631,17.181,19.682,17.181,26.807,21.393L5.565,22.58c2.303,2.773,5.829,4.394,9.563,4.395c3.718,0,7.226-1.623,9.505-4.395      c-5.938-3.074-13.129-3.074-19.067,0L26.807,21.393z" fill="#0080C9" id="path-2_1561608889721" vector-effect="non-scaling-stroke"/>
			</g>
		</g>
	</g>
</g></g></svg>