<svg version="1.2" xmlns="http://www.w3.org/2000/svg" xmlns:xlink="http://www.w3.org/1999/xlink" overflow="visible" preserveAspectRatio="none" viewBox="0 0 43 43" xml:space="preserve" height="41" width="41" y="0px" x="0px" id="Layer_1_1561704931901"><g transform="translate(1, 1)"><g>
	<path d="M21.047,10.406c0.343,0,0.616,0.252,0.678,0.578l1.406-0.128C23.004,9.813,22.123,9,21.047,9   c-1.111,0-2.014,0.866-2.094,1.957l1.391,0.152C20.344,10.722,20.659,10.406,21.047,10.406z" fill="#4D4D4D" vector-effect="non-scaling-stroke"/>
	<path d="M30.891,11.813H30.75h-0.563v-0.703C30.188,9.946,29.241,9,28.078,9c-0.983,0-1.805,0.68-2.037,1.592   l-0.054,0.658v0.563h-2.856V11.06c0-1.137-0.935-2.059-2.088-2.059c-1.154,0-2.089,0.922-2.089,2.059v0.752H16.01V11.06   c0-0.148-0.017-0.292-0.047-0.43l0.009,0.001c-0.029-0.125-0.072-0.246-0.122-0.361c-0.013-0.031-0.032-0.059-0.046-0.089   c-0.038-0.077-0.077-0.154-0.124-0.225c-0.037-0.057-0.079-0.108-0.121-0.161c-0.034-0.042-0.067-0.085-0.104-0.125   c-0.047-0.051-0.098-0.097-0.15-0.143c-0.042-0.037-0.085-0.073-0.131-0.106c-0.051-0.039-0.104-0.075-0.159-0.108   c-0.058-0.035-0.118-0.066-0.179-0.096c-0.049-0.023-0.097-0.048-0.148-0.067c-0.083-0.033-0.17-0.058-0.259-0.08   c-0.035-0.008-0.068-0.021-0.104-0.028C14.193,9.016,14.06,9,13.922,9c-0.26,0-0.506,0.054-0.736,0.14   c-0.025,0.01-0.053,0.014-0.078,0.024c-0.056,0.024-0.106,0.058-0.16,0.086c-0.067,0.035-0.137,0.066-0.199,0.108   c-0.042,0.028-0.077,0.063-0.116,0.094c-0.066,0.051-0.134,0.101-0.194,0.16c-0.067,0.067-0.125,0.143-0.183,0.219   c-0.022,0.028-0.048,0.053-0.068,0.082c-0.236,0.34-0.376,0.752-0.376,1.197v0.703h-0.396h-0.308C9.946,11.813,9,12.759,9,13.922   v16.969C9,32.054,9.946,33,11.109,33h19.781C32.054,33,33,32.054,33,30.891V13.922C33,11.813,32,11.813,30.891,11.813z    M27.364,11.094c0-0.379,0.315-0.688,0.703-0.688c0.389,0,0.703,0.309,0.703,0.688v2.843c0,0.38-0.314,0.688-0.703,0.688   c-0.388,0-0.703-0.308-0.703-0.688V11.094z M20.344,11.094c0-0.379,0.315-0.688,0.703-0.688c0.389,0,0.703,0.309,0.703,0.688v2.843   c0,0.38-0.314,0.688-0.703,0.688c-0.388,0-0.703-0.308-0.703-0.688V11.094z M13.219,11.094c0-0.379,0.315-0.688,0.703-0.688   c0.389,0,0.703,0.309,0.703,0.688v2.843c0,0.38-0.314,0.688-0.703,0.688c-0.388,0-0.703-0.308-0.703-0.688V11.094z M31.594,29.381   v1.51c0,0.388-0.315,0.703-0.703,0.703H11.109c-0.388,0-0.703-0.315-0.703-0.703V18.938h1.406h0.824h9.23h9.727V29.381z    M31.594,17.531H10.406v-3.609c0-0.388,0.315-0.703,0.703-0.703h0.308h0.396v0.703c0,0.443,0.139,0.854,0.374,1.194   c0.046,0.068,0.103,0.128,0.157,0.19c0.032,0.036,0.059,0.076,0.092,0.11c0.278,0.278,0.635,0.477,1.036,0.564   c0.009,0.002,0.018,0.006,0.027,0.008c0.128,0.026,0.261,0.038,0.396,0.04c0.009,0,0.018,0.003,0.027,0.003c0,0,0,0,0,0   c0.583,0,1.109-0.236,1.487-0.616c0.027-0.026,0.047-0.058,0.072-0.086c0.062-0.069,0.125-0.137,0.176-0.214   c0.234-0.34,0.373-0.75,0.373-1.193v-0.703h0.51h2.413v0.754c0,0.037,0.009,0.071,0.011,0.108l-0.011,0.004   c0.004,0.055,0.02,0.106,0.028,0.16c0.01,0.073,0.02,0.146,0.038,0.216c0.006,0.021,0.014,0.042,0.021,0.064   c0.21,0.741,0.824,1.316,1.599,1.466c0.086,0.017,0.176,0.02,0.265,0.026c0.047,0.003,0.091,0.014,0.139,0.014   c0.001,0,0.001,0,0.002,0s0.001,0,0.002,0c0.14,0,0.275-0.015,0.406-0.041c0.043-0.008,0.083-0.025,0.125-0.036   c0.085-0.022,0.171-0.044,0.252-0.077c0.063-0.025,0.119-0.059,0.179-0.09c0.054-0.028,0.108-0.053,0.159-0.085   c0.068-0.043,0.13-0.095,0.193-0.146c0.034-0.028,0.071-0.054,0.104-0.085c0.063-0.058,0.117-0.121,0.173-0.186   c0.027-0.033,0.057-0.064,0.082-0.099c0.047-0.063,0.087-0.128,0.127-0.196c0.028-0.049,0.057-0.097,0.081-0.148   c0.025-0.053,0.047-0.107,0.067-0.163c0.032-0.083,0.059-0.168,0.081-0.256c0.005-0.023,0.01-0.046,0.015-0.07   c0.013-0.061,0.031-0.119,0.039-0.182v-0.2v-0.754h2.856v0.887c0.095,1.076,0.99,1.926,2.091,1.926   c1.163,0,2.109-0.946,2.109-2.109v-0.703h0.563h0.141c0.388,0,0.703,0.315,0.703,0.703V17.531z" fill="#4D4D4D" vector-effect="non-scaling-stroke"/>
	<image transform="matrix(1 0 0 1 -7985 -7627)" xmlns:xlink="http://www.w3.org/1999/xlink" xlink:href="3CA19323.jpg" height="24" width="24" vector-effect="non-scaling-stroke">
	</image>
</g><path d="M29.484,19.875H12.516c-0.388,0-0.703,0.315-0.703,0.703v8.438c0,0.389,0.315,0.703,0.703,0.703h16.969  c0.389,0,0.703-0.314,0.703-0.703v-8.438L29.484,19.875z M16.031,28.313h-2.813V25.5h2.813V28.313z M16.031,24.094h-2.813v-2.813  h2.813V24.094z M20.344,28.313h-2.922V25.5h2.922V28.313z M20.344,24.125h-2.922v-2.813h2.922V24.125z M24.594,28.313h-2.891V25.5  h2.891V28.313z M24.594,24.125h-2.891v-2.813h2.891V24.125z M28.859,28.313h-2.891V25.5h2.891V28.313z M28.859,24.125h-2.891v-2.813  h2.891V24.125z" fill="#4D4D4D" vector-effect="non-scaling-stroke"/></g></svg>