<svg version="1.2" xmlns="http://www.w3.org/2000/svg" xmlns:xlink="http://www.w3.org/1999/xlink" overflow="visible" preserveAspectRatio="none" viewBox="0 0 43 43" xml:space="preserve" height="41" width="41" y="0px" x="0px" id="Layer_1_1561705380558"><g transform="translate(1, 1)"><path d="M34.569,16.359c-0.095-0.028-9.576-2.88-13.032-9.051C21.432,7.119,21.227,7.001,21,7  c-0.223,0-0.427,0.115-0.533,0.302c-3.508,6.115-12.945,9.03-13.04,9.058c-0.287,0.087-0.464,0.361-0.418,0.645  C7.055,17.29,7.309,17.5,7.61,17.5h26.781c0.301,0,0.558-0.211,0.603-0.497C35.038,16.718,34.857,16.444,34.569,16.359z   M10.67,16.333c2.78-1.313,8.069-4.017,10.467-7.833c2.364,3.835,7.34,6.525,10.133,7.833H10.67z" fill="#4D4D4D" vector-effect="non-scaling-stroke"/><g>
	<g>
		<path d="M14.253,16.333c-0.412,0-0.746,0.261-0.746,0.583v1.167c0,0.965-1.005,1.75-2.239,1.75    c-0.412,0-0.747,0.261-0.747,0.583c0,0.322,0.334,0.583,0.747,0.583C13.327,21,15,19.691,15,18.083v-1.167" fill="#4D4D4D" id="path-2_1561705380558" vector-effect="non-scaling-stroke"/>
	</g>
</g><g>
	<g>
		<path d="M31,20.417C31,20.833,30.701,21,30.334,21C28.494,21,27,19.691,27,18.083v-1.167    c0-0.322,0.299-0.583,0.666-0.583c0.369,0,0.668,0.261,0.668,0.583v1.167c0,0.965,0.574,1.917,1.677,1.917    C30.379,20,31,20,31,20.417z" fill="#4D4D4D" id="path-3_1561705380558" vector-effect="non-scaling-stroke"/>
	</g>
</g><g>
	<g>
		<path d="M27.5,16.333c-0.275,0-0.5,0.261-0.5,0.583v1.167c0,0.965-0.673,1.75-1.5,1.75    s-1.5-0.785-1.5-1.75v-1.167c0-0.322-0.225-0.583-0.5-0.583S23,16.595,23,16.917v1.167C23,19.691,24.121,21,25.5,21    s2.5-1.309,2.5-2.917v-1.167" fill="#4D4D4D" id="path-4_1561705380558" vector-effect="non-scaling-stroke"/>
	</g>
</g><g>
	<g>
		<path d="M23.4,16.333c-0.332,0-0.601,0.261-0.601,0.583v1.167c0,0.965-0.808,1.75-1.8,1.75    s-1.8-0.785-1.8-1.75v-1.167c0-0.322-0.269-0.583-0.6-0.583S18,16.595,18,16.917v1.167C18,19.691,19.345,21,21,21    c1.654,0,3-1.309,3-2.917v-1.167" fill="#4D4D4D" id="path-5_1561705380558" vector-effect="non-scaling-stroke"/>
	</g>
</g><g>
	<g>
		<path d="M18.5,16.333c-0.276,0-0.5,0.261-0.5,0.583v1.167c0,0.965-0.673,1.75-1.5,1.75    s-1.5-0.785-1.5-1.75v-1.167c0-0.322-0.224-0.583-0.5-0.583S14,16.595,14,16.917v1.167C14,19.691,15.121,21,16.5,21    s2.5-1.309,2.5-2.917v-1.167" fill="#4D4D4D" id="path-6_1561705380558" vector-effect="non-scaling-stroke"/>
	</g>
</g><g>
	<g>
		<path d="M30.587,16.333h3.522l0.586,0.583v17.5c0,0.322-0.263,0.584-0.586,0.584h-1.175    c-0.258,0-0.485-0.168-0.562-0.413C32.35,34.51,30,26.771,30,16.917C30,16.595,30.264,16.333,30.587,16.333l2.954,17.5h0.154V17.5    h-2.52c0.084,8.128,1.868,14.665,2.365,16.333L30.587,16.333z" fill="#4D4D4D" id="path-7_1561705380558" vector-effect="non-scaling-stroke"/>
	</g>
</g><g transform="translate(9.34783935546875, 25.6666259765625) scale(-1, 1) translate(-9.34783935546875, -25.6666259765625)">
	<g>
		<path d="M7.587,16.333h3.522l0.587,0.583v17.5c0,0.322-0.263,0.584-0.587,0.584H9.935    c-0.258,0-0.486-0.168-0.563-0.413C9.35,34.51,7,26.771,7,16.917C7,16.595,7.263,16.333,7.587,16.333l2.954,17.5h0.155V17.5h-2.52    c0.083,8.128,1.868,14.665,2.364,16.333L7.587,16.333z" fill="#4D4D4D" id="path-8_1561705380558" vector-effect="non-scaling-stroke"/>
	</g>
</g></g></svg>