<svg version="1.2" xmlns="http://www.w3.org/2000/svg" xmlns:xlink="http://www.w3.org/1999/xlink" overflow="visible" preserveAspectRatio="none" viewBox="0 0 43 43" xml:space="preserve" height="41" width="41" y="0px" x="0px" id="Layer_1_1561705399905"><g transform="translate(1, 1)"><path d="M25.527,13.426c-0.125-2.76-1.393-4.08-2.439-4.696c-0.78-0.46-1.691-0.709-2.707-0.73h-0.085  c-0.559,0-1.655,0.093-2.707,0.709c-1.056,0.616-2.344,1.937-2.47,4.717c-0.035,0.367-0.357,4.219,1.58,6.466  c0.875,1.02,2.124,1.579,3.703,1.579c1.58,0,2.667-0.559,3.546-1.579C25.885,17.645,25.563,13.793,25.527,13.426z M22.937,18.965  c-0.634,0.735-1.479,1.098-2.641,1.108c-1.107-0.011-1.957-0.373-2.586-1.108c-0.872-1.007-1.164-2.388-1.248-3.438  c-0.001,0.085-0.003,0.121-0.005,0.121c-0.003,0-0.007-0.161-0.011-0.353c-0.012-0.226-0.016-0.431-0.014-0.608  c0-0.026,0-0.038,0.001-0.038c0.002,0,0.008,0.358,0.013,0.646l0.016,0.231c0.003-0.195,0.005-0.65,0.005-1.527  c0-3.5,2.671-5,3.829-5c1.359,0.031,3.723,1.003,3.884,4.555C24.177,13.555,24.531,17.118,22.937,18.965z" fill="#4D4D4D" vector-effect="non-scaling-stroke"/><g>
	<g>
		<path d="M30.66,27.844c0-0.041-0.006-0.083-0.006-0.129c-0.03-1.025-0.096-3.423-2.329-4.205    c0.035,0.012-4.155-1.94-4.176-1.956c-0.308-0.223-0.729-0.146-0.946,0.171c-0.217,0.315-0.141,0.75,0.166,0.973    c0.086,0.063,2.088,1.496,4.594,2.159c1.172,0.43,1.303,1.719,1.338,2.899c0,0.047,0,0.088,0.006,0.129    c0.004,0.467-0.025,1.186-0.106,1.6c-0.815,0.477-4.01,2.123-8.87,2.123c-4.84,0-8.055-1.651-8.875-2.128    c-0.081-0.414-0.116-1.134-0.105-1.6c0-0.042,0.005-0.083,0.005-0.13c0.035-1.18,0.166-2.469,1.338-2.898    c2.505-0.663,4.508-2.102,4.593-2.159c0.307-0.223,0.382-0.657,0.166-0.974c-0.216-0.315-0.639-0.393-0.946-0.17    c-0.019,0.014-1.697,1.219-3.849,1.865c-0.124,0.038-0.25,0.073-0.377,0.107c0.03-0.012-2.279,0.979-2.279,2.479    s0.005,2.807,0,2.863c-0.005,0.27-0.015,0.643,0.252,1.336c0.05,0.135,0.141,0.248,0.261,0.326C10.666,30.629,14.283,33,20.335,33    c6.053,0,9.67-2.377,9.821-2.475c0.115-0.078,0.211-0.191,0.262-0.326c0.252-0.688,0.246-2.07,0.242-2.34" fill="#4D4D4D" id="path-2_1561705399905" vector-effect="non-scaling-stroke"/>
	</g>
</g></g></svg>