<svg version="1.2" xmlns="http://www.w3.org/2000/svg" xmlns:xlink="http://www.w3.org/1999/xlink" overflow="visible" preserveAspectRatio="none" viewBox="0 0 43 43" xml:space="preserve" height="41" width="41" y="0px" x="0px" id="Layer_1_1561705201162"><g transform="translate(1, 1)"><g>
	<path d="M30.332,7h-7.459c-1.09-0.003-2.136,0.438-2.905,1.225L8.202,20.208C7.433,20.991,7,22.055,7,23.163   s0.433,2.171,1.202,2.955l7.459,7.595c0.769,0.787,1.813,1.228,2.903,1.225c1.09,0.004,2.136-0.438,2.905-1.225l11.766-11.98   c0.773-0.782,1.207-1.848,1.203-2.958V11.18C34.435,8.873,32.598,7.003,30.332,7z M32.265,20.742L20.497,32.726   c-0.513,0.522-1.208,0.815-1.933,0.815c-0.725,0-1.42-0.293-1.933-0.815l-7.459-7.595c-0.513-0.522-0.801-1.23-0.801-1.969   s0.288-1.445,0.801-1.967L20.94,9.212c0.511-0.523,1.207-0.817,1.933-0.815h7.459c1.509,0.001,2.731,1.247,2.733,2.783v7.595   C33.066,19.513,32.779,20.222,32.265,20.742z" fill="#4D4D4D" vector-effect="non-scaling-stroke"/>
</g><g>
	<path d="M28.324,18.429l-5.109-5.202c-1.08-1.099-2.831-1.099-3.911,0l-6.691,6.814c-1.077,1.1-1.077,2.881,0,3.981   l5.11,5.202c0.517,0.53,1.221,0.827,1.955,0.825c0.733,0.002,1.437-0.295,1.955-0.825l6.691-6.813   C29.4,21.309,29.4,19.529,28.324,18.429z M20.516,28.088c-0.471,0.457-1.211,0.457-1.681,0l-5.11-5.203c0,0-0.464-1.238,0-1.711   l6.696-6.813c0.47-0.458,1.21-0.458,1.681,0l5.109,5.202c0.464,0.473,0.464,1.239,0,1.713L20.516,28.088z" fill="#4D4D4D" vector-effect="non-scaling-stroke"/>
</g><g>
	<g>
		<path d="M23.484,18.67c0.184,0.188,0.184,0.313,0.006,0.497l-0.275,0.279    c0.447,0.647,0.541,1.328,0.28,2.056c-0.087,0.293-0.233,0.347-0.528,0.225l-0.668-0.26c-0.262-0.102-0.321-0.218-0.234-0.511    c0.127-0.401,0.08-0.708-0.287-1.082c-0.475-0.484-0.776-0.585-1.064-0.293c-0.246,0.251-0.062,0.633,0.402,1.212    c0.236,0.283,0.448,0.586,0.635,0.906c0.096,0.163,0.165,0.34,0.207,0.524c0.124,0.49,0.063,1.137-0.541,1.692    c-0.715,0.729-1.678,0.752-2.661,0.066l-0.288,0.293c-0.185,0.188-0.308,0.188-0.493,0l-0.508-0.518    c-0.181-0.184-0.185-0.313,0-0.502l0.274-0.278c-0.554-0.77-0.655-1.538-0.314-2.308c0,0,0.17-0.357,0.541-0.184l0.616,0.3    c0.267,0.125,0.321,0.258,0.213,0.544c-0.167,0.388-0.053,0.776,0.328,1.165c0.508,0.518,0.903,0.633,1.19,0.34    c0.268-0.271,0.094-0.626-0.381-1.219c-0.328-0.428-0.502-0.646-0.708-1.128c-0.104-0.205-0.166-0.43-0.181-0.661    c-0.026-0.395,0.14-0.918,0.575-1.361c0.703-0.715,1.632-0.748,2.595-0.041l0.275-0.279c0.18-0.184,0.307-0.177,0.488,0.008" fill="#4D4D4D" id="path-3_1561705201162" vector-effect="non-scaling-stroke"/>
	</g>
</g><path d="M29.648,13.967c-1.134-0.001-2.053-0.938-2.051-2.092c0-1.154,0.92-2.09,2.054-2.089  s2.053,0.937,2.053,2.091C31.703,13.031,30.783,13.967,29.648,13.967l0.682-2.089c0-0.184-0.071-0.361-0.199-0.492  c-0.128-0.131-0.301-0.204-0.482-0.202c-0.377,0-0.682,0.311-0.682,0.694c0,0.384,0.305,0.694,0.682,0.694s0.682-0.311,0.682-0.694  L29.648,13.967z" fill="#4D4D4D" id="path-1_1561705201162" vector-effect="non-scaling-stroke"/></g></svg>