<svg version="1.2" xmlns="http://www.w3.org/2000/svg" xmlns:xlink="http://www.w3.org/1999/xlink" overflow="visible" preserveAspectRatio="none" viewBox="1.7926443815231323 2.827540636062622 37.43900680541992 37.43901062011719" width="35" height="35"><g transform="translate(1, 1)"><defs><path d="M35.024296283721924,24.49945831298828 L34.659531116485596,21.445968627929688 C34.62030839920044,21.117752075195312 34.324955463409424,20.881553649902344 33.99596071243286,20.915115356445312 C32.790302753448486,21.038393020629883 31.692312717437744,20.159996032714844 31.548698902130127,18.957378387451172 C31.40502405166626,17.754762649536133 32.26519441604614,16.642955780029297 33.46606111526489,16.479026794433594 C33.79384660720825,16.43425941467285 34.02518129348755,16.135242462158203 33.98595857620239,15.807024002075195 L33.621254444122314,12.753534317016602 C33.558205127716064,12.226011276245117 33.293407917022705,11.754584312438965 32.87559938430786,11.426063537597656 C32.45772981643677,11.097603797912598 31.936922550201416,10.95142650604248 31.409084796905518,11.014307975769043 L10.115938186645508,13.554086685180664 C9.593374252319336,13.616422653198242 9.12603759765625,13.876609802246094 8.797767639160156,14.28685188293457 L5.990350723266602,14.28685188293457 C4.892845153808594,14.286972999572754 4.000000476837158,15.179182052612305 4.000000476837158,16.27584457397461 L4.000000476837158,19.351022720336914 C4.000000476837158,19.681602478027344 4.265223026275635,19.95111846923828 4.595917224884033,19.95675277709961 C5.807816982269287,19.9772891998291 6.7937774658203125,20.979389190673828 6.7937774658203125,22.190547943115234 C6.7937774658203125,23.40170669555664 5.807816982269287,24.403804779052734 4.595917224884033,24.424402236938477 C4.265223026275635,24.429914474487305 4.000000476837158,24.699491500854492 4.000000476837158,25.030010223388672 L4.000000476837158,28.10519027709961 C4.000000476837158,29.20185089111328 4.892845153808594,30.09406280517578 5.990350723266602,30.09406280517578 L27.434628009796143,30.09406280517578 C28.53213357925415,30.09406280517578 29.424978733062744,29.20185089111328 29.424978733062744,28.10512924194336 L29.424978733062744,27.170330047607422 L33.28389024734497,26.710052490234375 C33.81179094314575,26.647109985351562 34.28355073928833,26.38249969482422 34.61230516433716,25.964927673339844 L35.024296283721924,24.49945831298828 L33.14021348953247,25.50707244873047 C33.34651231765747,25.48247528076172 33.53092622756958,25.37900733947754 33.659382343292236,25.21586799621582 L33.820396900177,24.64309310913086 L33.52019548416138,22.130088806152344 C32.828434467315674,22.081321716308594 32.167831897735596,21.82501220703125 31.615383625030518,21.38369369506836 C30.90404176712036,20.815462112426758 30.452770709991455,20.004732131958008 30.344799518585205,19.1009521484375 C30.23683214187622,18.197172164916992 30.484474658966064,17.303146362304688 31.042019367218018,16.583526611328125 C31.475040912628174,16.02474594116211 32.056713581085205,15.620197296142578 32.71755647659302,15.410109519958496 L32.41735506057739,12.897106170654297 C32.39274263381958,12.69095516204834 32.28926134109497,12.506673812866211 32.12594270706177,12.37830638885498 C31.96262788772583,12.249939918518066 31.758938312530518,12.192752838134766 31.552761554718018,12.217408180236816 L14.202484607696533,14.28679084777832 L27.434628009796143,14.28679084777832 C28.532135486602783,14.28679084777832 29.424980640411377,15.178999900817871 29.424980640411377,16.275724411010742 L29.424980640411377,19.350902557373047 C29.424980640411377,19.681482315063477 29.159817218780518,19.950998306274414 28.82906198501587,19.956632614135742 C27.6171612739563,19.977169036865234 26.631203174591064,20.979206085205078 26.631203174591064,22.190425872802734 C26.631203174591064,23.40164566040039 27.6171612739563,24.403743743896484 28.82906198501587,24.42428207397461 C29.159756183624268,24.429914474487305 29.424980640411377,24.699432373046875 29.424980640411377,25.030010223388672 L29.424980640411377,25.950206756591797 L33.14021348953247,25.50707244873047 L28.212534427642822,26.094749450683594 L28.212534427642822,28.10512924194336 C28.212534427642822,28.53372573852539 27.863592624664307,28.882478713989258 27.434629917144775,28.882478713989258 L23.675806522369385,28.882478713989258 L23.675806522369385,27.746681213378906 C23.675806522369385,27.41210174560547 23.40440034866333,27.14089012145996 23.069584369659424,27.14089012145996 C22.734766483306885,27.14089012145996 22.463362216949463,27.41210174560547 22.463362216949463,27.746681213378906 L22.463362216949463,28.88241958618164 L5.990350723266602,28.88241958618164 C5.561448097229004,28.88241958618164 5.2124457359313965,28.53372573852539 5.2124457359313965,28.10506820678711 L5.2124457359313965,25.57431411743164 C5.8935370445251465,25.444007873535156 6.519098281860352,25.111186981201172 7.015291213989258,24.607593536376953 C7.654310703277588,23.959095001220703 8.00622272491455,23.10068702697754 8.00622272491455,22.190486907958984 C8.00622272491455,21.280284881591797 7.654310703277588,20.421878814697266 7.015291213989258,19.773380279541016 C6.519037246704102,19.269786834716797 5.8935370445251465,18.93696403503418 5.2124457359313965,18.806659698486328 L5.2124457359313965,16.27584457397461 C5.2124457359313965,15.847248077392578 5.561387538909912,15.498494148254395 5.990350723266602,15.498494148254395 L22.46342134475708,15.498494148254395 L22.46342134475708,22.875272750854492 C22.46342134475708,23.209850311279297 22.734827518463135,23.481063842773438 23.069645404815674,23.481063842773438 C23.40446138381958,23.481063842773438 23.675867557525635,23.209850311279297 23.675867557525635,22.875272750854492 L23.675867557525635,15.498555183410645 L27.434690952301025,15.498555183410645 C27.863592624664307,15.498555183410645 28.212595462799072,15.847248077392578 28.212595462799072,16.27590560913086 L28.212595462799072,18.806718826293945 C27.531504154205322,18.93702507019043 26.905943393707275,19.269845962524414 26.40968942642212,19.773441314697266 C25.770670413970947,20.421939849853516 25.41881799697876,21.280345916748047 25.41881799697876,22.190547943115234 C25.41881799697876,23.10074806213379 25.770729541778564,23.95915412902832 26.40968942642212,24.607654571533203 C26.905943393707275,25.111248016357422 27.531504154205322,25.444068908691406 28.212595462799072,25.57437515258789 L28.212534427642822,26.094749450683594 L35.024296283721924,24.49945831298828Z" fill-rule="evenodd" opacity="1" id="path-1_1561704324372" vector-effect="non-scaling-stroke"/><path d="M23.629369274577254,25.079080210310245 C23.61421370789332,25.04273274513315 23.595420805205244,25.007596862128626 23.57359678918038,24.974884143469236 C23.551772773155516,24.941565633723567 23.52631142112651,24.910670288323036 23.49842517842807,24.88280389835393 C23.47053893572964,24.854937508384825 23.439015357027056,24.829494282760855 23.40627933298976,24.807685803654596 C23.37293708628511,24.785271533462055 23.337776171578387,24.767097800873508 23.301402811536946,24.751953023716382 C23.265029451495504,24.73680824655926 23.226837423451993,24.724692424833563 23.188039172741128,24.716817140711857 C23.109836448652032,24.701672363554735 23.02920883389351,24.701672363554735 22.951006109804414,24.716817140711857 C22.91220785909355,24.724692424833563 22.874622053717395,24.73680824655926 22.837642471008596,24.751953023716382 C22.80126911096716,24.767097800873508 22.766108196260433,24.785271533462055 22.733372172223138,24.807685803654596 C22.700029925518486,24.829494282760855 22.66911256948326,24.854937508384822 22.641226326784828,24.88280389835393 C22.61273386141903,24.910670288323036 22.587878732057384,24.94156563372357 22.565448493365164,24.974884143469236 C22.5436244773403,25.007596862128626 22.52483157465222,25.04273274513315 22.509676007968288,25.079080210310245 C22.494520441284354,25.11603346657363 22.483002210604567,25.15419830500958 22.475121315928924,25.192968934531812 C22.467240421253276,25.23173956405405 22.463603085249133,25.271721775748855 22.463603085249133,25.311098196357374 C22.463603085249133,25.350474616965894 22.467240421253276,25.3904568286607 22.475121315928924,25.429227458182933 C22.483002210604567,25.46799808770517 22.494520441284354,25.50616292614112 22.509676007968288,25.542510391318217 C22.52483157465222,25.579463647581598 22.5436244773403,25.614599530586123 22.565448493365164,25.64731224924551 C22.587878732057384,25.68063075899118 22.61273386141903,25.711526104391712 22.641226326784828,25.739392494360818 C22.66911256948326,25.767258884329923 22.70002992551849,25.79270210995389 22.733372172223138,25.81451058906015 C22.766108196260433,25.836319068166407 22.80126911096716,25.85509859184124 22.837642471008596,25.870243368998363 C22.874622053717395,25.885388146155485 22.91220785909355,25.897503967881185 22.951006109804414,25.904773460916605 C22.99041058318264,25.912648745038307 23.029815056560867,25.916889282642302 23.069825752606448,25.916889282642302 C23.10923022598467,25.916889282642302 23.1486346993629,25.912648745038307 23.188039172741124,25.904773460916605 C23.22683742345199,25.897503967881185 23.2650294514955,25.885388146155485 23.301402811536942,25.870243368998363 C23.337776171578383,25.85509859184124 23.372937086285106,25.836319068166407 23.406279332989758,25.81451058906015 C23.439015357027056,25.79270210995389 23.470538935729635,25.767258884329927 23.498425178428068,25.739392494360818 C23.526311421126504,25.711526104391712 23.551772773155513,25.680630758991178 23.573596789180378,25.64731224924551 C23.59542080520524,25.614599530586123 23.614213707893317,25.579463647581598 23.62936927457725,25.542510391318217 C23.644524841261184,25.50616292614112 23.65604307194097,25.46799808770517 23.66392396661662,25.429227458182933 C23.671804861292262,25.3904568286607 23.676048419963763,25.350474616965894 23.676048419963763,25.311098196357374 C23.676048419963763,25.271721775748855 23.671804861292262,25.23173956405405 23.66392396661662,25.192968934531812" fill-rule="evenodd" opacity="1" id="path-2_1561704324372" vector-effect="non-scaling-stroke"/></defs><g><g opacity="1" transform="translate(19.512148141860962, 20.547046661376953) rotate(-45.00001609038752) translate(-19.512148141860962, -20.547046661376953)"><g opacity="1"><use fill-opacity="1" fill="rgb(77,77,77)" xmlns:xlink="http://www.w3.org/1999/xlink" xlink:href="#path-1_1561704324372" vector-effect="non-scaling-stroke"/></g><g opacity="1"><use fill-opacity="1" fill={props.fill} xmlns:xlink="http://www.w3.org/1999/xlink" xlink:href="#path-2_1561704324372" vector-effect="non-scaling-stroke"/></g></g></g></g></svg>